<svg xmlns="http://www.w3.org/2000/svg" xmlns:xlink="http://www.w3.org/1999/xlink" width="18" height="18" viewBox="0 0 18 18">
    <defs>
        <path id="a" d="M0 .65h6.966v6.965H0z"/>
    </defs>
    <g fill="none" fill-rule="evenodd">
        <path fill="#999" d="M.433 6.966A.433.433 0 0 1 0 6.533V2.51A2.512 2.512 0 0 1 2.51 0h4.024a.433.433 0 0 1 0 .865H2.51C1.603.865.865 1.603.865 2.51v4.023a.433.433 0 0 1-.432.433"/>
        <g transform="translate(0 9.865)">
            <mask id="b" fill="#fff">
                <use xlink:href="#a"/>
            </mask>
            <path fill="#999" d="M6.534 7.615H2.51A2.512 2.512 0 0 1 0 5.105V1.083a.433.433 0 0 1 .865 0v4.024c0 .907.738 1.644 1.645 1.644h4.024a.433.433 0 0 1 0 .865" mask="url(#b)"/>
        </g>
        <path fill="#999" d="M14.971 17.48h-4.024a.433.433 0 0 1 0-.865h4.024c.907 0 1.644-.737 1.644-1.644v-4.024a.433.433 0 0 1 .866 0v4.024a2.512 2.512 0 0 1-2.51 2.51M17.048 6.966a.433.433 0 0 1-.433-.433V2.51c0-.907-.737-1.645-1.644-1.645h-4.024a.433.433 0 0 1 0-.865h4.024a2.512 2.512 0 0 1 2.51 2.51v4.023a.433.433 0 0 1-.433.433"/>
    </g>
</svg>
