<svg width="12" height="12" xmlns="http://www.w3.org/2000/svg"><g fill="none" fill-rule="evenodd"><path d="M-298-81H22v568h-320z"/><path d="M-2-2h16v16H-2z"/><path d="M7.333 6l3.696-3.696c.389-.389.407-1.007.04-1.373-.366-.367-.984-.349-1.373.04L6 4.667 2.304.97C1.915.582 1.297.564.931.93c-.367.366-.349.984.04 1.373L4.667 6 .97 9.696c-.389.389-.407 1.007-.04 1.373.366.367.984.349 1.373-.04L6 7.333l3.696 3.696c.389.389 1.007.407 1.373.04.367-.366.349-.984-.04-1.373L7.333 6z" fill="#9FA6B0"/></g></svg>