<svg xmlns="http://www.w3.org/2000/svg" width="40" height="40" viewBox="0 0 40 40">
    <g fill="none" fill-rule="evenodd">
        <path fill-rule="nonzero" d="M0 0h40v40H0z"/>
        <path fill="#53DC53" d="M37 15v-4a3 3 0 0 0-3-3H21.444a14.88 14.88 0 0 1 .511 3.115 6.76 6.76 0 0 1 1.285.671C26.043 13.682 28 17.735 28 21a8 8 0 0 1-8 8 7.972 7.972 0 0 1-6.574-3.462A14.905 14.905 0 0 1 7 27c-1.388 0-2.725-.203-4-.556V29a3 3 0 0 0 3 3h28a3 3 0 0 0 3-3v-4a5 5 0 1 1 0-10"/>
        <path fill="#00AC47" d="M13.426 25.538a7.954 7.954 0 0 1-1.393-3.88A7.939 7.939 0 0 1 12 21c0-4.418 3.581-10.286 8-10.286.676 0 1.328.152 1.955.401A15.012 15.012 0 0 0 21.445 8H6a3 3 0 0 0-3 3v4a5 5 0 0 1 0 10v1.444c1.275.353 2.612.556 4 .556 2.303 0 4.476-.534 6.426-1.462"/>
        <path fill="#00AC47" d="M22.855 18.602l-.65-.162-.25-.063-.122-.03a.86.86 0 0 1-.566-.453L21 17.357l-.226-.449a.864.864 0 0 0-1.546 0l-.495.987a.86.86 0 0 1-.564.453l-1.022.255a.865.865 0 0 0-.402 1.451l.74.742a.868.868 0 0 1 .229.822l-.007.031-.141.56a.854.854 0 0 0 .008.43c.132.495.698.815 1.219.554l.822-.41a.862.862 0 0 1 .773 0l.822.41a.866.866 0 0 0 1.227-.985l-.148-.59a.865.865 0 0 1 .228-.822l.74-.742a.865.865 0 0 0-.401-1.45"/>
    </g>
</svg>
